<svg id="_5697373c-b41a-41d7-99c7-222dbdce0794" data-name="5697373c-b41a-41d7-99c7-222dbdce0794" xmlns="http://www.w3.org/2000/svg" xmlns:xlink="http://www.w3.org/1999/xlink" viewBox="0 0 1132.93 839.14"><defs><style>.cls-1,.cls-31,.cls-32,.cls-33{fill:#6c63ff;}.cls-1,.cls-11,.cls-35{opacity:0.1;}.cls-1,.cls-11,.cls-19,.cls-20,.cls-23,.cls-24,.cls-27,.cls-28,.cls-32,.cls-33,.cls-35,.cls-6{isolation:isolate;}.cls-2{fill:url(#linear-gradient);}.cls-3{fill:url(#linear-gradient-2);}.cls-4{fill:#f6bac2;}.cls-5{fill:#b77983;}.cls-13,.cls-6{opacity:0.05;}.cls-7{fill:#d39999;}.cls-8{fill:none;}.cls-9{fill:#4b4442;}.cls-10{fill:#8499f0;}.cls-11,.cls-30,.cls-48{fill:#fff;}.cls-12{fill:#7e646b;}.cls-14{fill:#b7b6cc;}.cls-15,.cls-19,.cls-23,.cls-27,.cls-32{opacity:0.5;}.cls-16{fill:url(#linear-gradient-3);}.cls-17{fill:#f9fafb;}.cls-18,.cls-19,.cls-20{fill:#f7b643;}.cls-20,.cls-24,.cls-28,.cls-33{opacity:0.3;}.cls-21{fill:url(#linear-gradient-4);}.cls-22,.cls-23,.cls-24{fill:#f97878;}.cls-25{fill:url(#linear-gradient-5);}.cls-26,.cls-27,.cls-28{fill:#73b53b;}.cls-29{fill:url(#linear-gradient-6);}.cls-34{fill:#e6ecf8;}.cls-36{fill:url(#linear-gradient-7);}.cls-37{fill:#f6f7f9;}.cls-38{opacity:0.2;}.cls-39{fill:url(#linear-gradient-8);}.cls-40{fill:#ae6e79;}.cls-41{fill:#bebed0;}.cls-42{fill:#5c5c8e;}.cls-43{fill:#42383c;}.cls-44,.cls-46{fill:#29b6f6;}.cls-45{fill:#ffd037;}.cls-46{font-size:23px;font-family:MyriadPro-Regular, Myriad Pro;}.cls-47{letter-spacing:-0.01em;}.cls-48{font-size:148.85px;font-family:Noteworthy-Light, Noteworthy;font-weight:300;}</style><linearGradient id="linear-gradient" x1="819.88" y1="241.31" x2="819.88" y2="707.68" gradientTransform="matrix(1, 0, 0, -1, -33.54, 809.57)" gradientUnits="userSpaceOnUse"><stop offset="0" stop-color="gray" stop-opacity="0.25"/><stop offset="0.54" stop-color="gray" stop-opacity="0.12"/><stop offset="1" stop-color="gray" stop-opacity="0.1"/></linearGradient><linearGradient id="linear-gradient-2" x1="855.68" y1="621.31" x2="855.68" y2="623.76" xlink:href="#linear-gradient"/><linearGradient id="linear-gradient-3" x1="508.62" y1="29.94" x2="508.62" y2="292.77" gradientTransform="matrix(0, 1, 1, 0, 468.18, -131.21)" xlink:href="#linear-gradient"/><linearGradient id="linear-gradient-4" x1="480.21" y1="40.33" x2="480.21" y2="302.18" gradientTransform="matrix(0, 1, 1, 0, 412.03, -109.69)" xlink:href="#linear-gradient"/><linearGradient id="linear-gradient-5" x1="455.66" y1="99.9" x2="455.66" y2="361.75" gradientTransform="matrix(0, 1, 1, 0, 327.85, -83.99)" xlink:href="#linear-gradient"/><linearGradient id="linear-gradient-6" x1="451.79" y1="125.54" x2="451.79" y2="387.39" gradientTransform="matrix(1, 0, 0, -1, 88.86, 634.07)" xlink:href="#linear-gradient"/><linearGradient id="linear-gradient-7" x1="1008.9" y1="512.93" x2="1008.9" y2="683.6" gradientTransform="matrix(0, 1, 1, 0, 363.06, -880.53)" xlink:href="#linear-gradient"/><linearGradient id="linear-gradient-8" x1="864.83" y1="-9.55" x2="864.83" y2="412.63" xlink:href="#linear-gradient"/></defs><title>ati</title><path class="cls-1" d="M481.34,56.33c-37.17-15.11-76.45-27.76-116.55-26.15C305.79,32.5,249.28,68,221.52,120,198,164.14,195.1,215.85,185,264.8c-12.48,60.32-36.38,117.64-61.92,173.7-13.72,30.07-28.19,60.87-30.44,93.88-3.13,45.82,18.78,91.49,53.13,122s80,46.56,125.77,50.07c24.37,1.87,49.83.14,71.48-11.2,22.9-12,39.59-33.69,62.58-45.51,21.31-11,46.23-12.5,70.15-11.07a313.88,313.88,0,0,1,91.59,19.46c33.43,12.56,64.52,30.74,97.88,43.47s70.63,19.84,104.73,9.21c32-10,57.34-34.2,80.17-58.75a1028.14,1028.14,0,0,0,102.2-129.3c20.59-30.84,39.75-63.38,48.86-99.33,17.4-68.72-6.55-146.26-59.69-193.2-44-38.88-103.09-55.76-160.92-66-52.73-9.34-113.7-9.92-162.24-34.26C572,104.72,529.88,76.07,481.34,56.33Z" transform="translate(0 0)"/><path class="cls-2" d="M871.19,120.27c-14.28.57-15,37.44-14.11,39.05s-3.24,18.25-3.24,18.25-6.48,25.23-5.73,29.92-3.49,7.76-3.49,7.76c-6.34,2.5-14.29,10.56-16.4,12.77l-.53.57s-6.14,4-7.22,5.58-4,.32-4,.32-8.3-.8-9.38-.48c-.74.22-1.9-1.14-2.56-2-.31-.41-.51-.72-.51-.72l-.25-7.44a5.74,5.74,0,0,0-1-.62c.17-.84.38-1.71.64-2.6a22.31,22.31,0,0,0,9.09-8.16c.24-.38.46-.77.67-1.16a3,3,0,0,0,1.89.53,3.7,3.7,0,0,0,.88-.08,7.11,7.11,0,0,0,2.56-1.29,13.7,13.7,0,0,0,4.76-5.58,10.4,10.4,0,0,0,.45-1.33c-.15.25-.31.5-.47.74a7.7,7.7,0,0,0-.53-6.49c-.78-1.26-2-2.28-2.5-3.68-.84-2.41.75-4.9,1.73-7.26a12.17,12.17,0,0,0,.89-6.84,8.74,8.74,0,0,0-3.7-5.77c-3.93-2.55-9.26-1.15-13.81-2.38a38.29,38.29,0,0,1-4.75-1.91,35.61,35.61,0,0,0-7.27-2.26c-2.47-.49-5.46-.54-7,1.39a14.38,14.38,0,0,0-1.14,1.93,7.15,7.15,0,0,1-4.47,3.21,17,17,0,0,1-2.75.29,2.74,2.74,0,0,0,0-1.14c-1.16-3.8,2.16-6.62,6.48-8.32s20.75-14.64,22.66-17.71,15.28-12.7,15.28-12.7,20-5.66,26.56-26.28-31.38,14.4-35.2,15.45-9.29,5-9.29,5L780.1,142.9A88.21,88.21,0,0,0,767,152c-5.89,5.09-9.62,13.74-9.62,13.74s-2.33,3.8-5.73,9.3a25.42,25.42,0,0,1-7.42,7.89l.11-.2c-.27.33-8.64,10.9-9.38,15.52s-4.15,23.45-4.15,23.45-3,14.79-5.06,17.7c0,0-1.67,8.49-2.66,9.63s-5,13.17-4.32,14.39c0,0-3.82,8.33-3.15,11.48l-6.89,16.5s-3.74,8.16-3.49,12.93c.12,2.31.22,5,.29,7.2v1h0v1c-.37.62-1.32,2.2-2.31,4.11-1.42,2.78-2.93,6.25-2.84,8.39.16,3.76.17,12.94-1.56,16.31l-.51-.2a7,7,0,0,0-1,3.32l.12.06c0,.29-.09.59-.12.91-.42,3.83.19,9.16-.77,10.33-1.33,1.62-.67,37.52-.67,37.52S693.69,416.71,698,431l-.33,11.15s-.17,10.51.33,12,.67,12.13.67,12.13L701.17,484s-3.33,27.49-.5,34.28a37.49,37.49,0,0,1,3,11.81,18.34,18.34,0,0,0,4.58,1.77v1l-.65,16.72v.92s-.08.44-.14,1.17h0v.41a.24.24,0,0,0,0,.12v.35a1.22,1.22,0,0,0,0,.27v1.75h0v1.46a2.89,2.89,0,0,0,.08.5v.12a2.55,2.55,0,0,0,.11.55h0a2.12,2.12,0,0,0,.13.54v.06h0a1,1,0,0,0,.08.28.29.29,0,0,0,0,.13,1.62,1.62,0,0,0,.1.34v.08c.1.28.2.56.32.84v.09c0,.1.09.21.14.31l.06.14.13.27.08.15.14.25.09.15c0,.08.09.16.14.24a1.84,1.84,0,0,1,.1.16l.15.23.11.15.16.23.12.15.18.22.12.14.21.24.11.12.34.33a.52.52,0,0,0,.11.1,2.73,2.73,0,0,0,.25.23l.16.13.22.18.19.14.22.16.21.14.22.14.23.13.23.14.24.12.25.12.25.12.25.11.27.11.27.1.28.1.3.09.47.14.39.1.31.06.32.07h.34l.33.05h4.22l.54-.05h.33l.91-.1s11.33,1.69,11.7-2.79a3.59,3.59,0,0,1,.05-.72v-.57a.74.74,0,0,1,0-.21v-5.69c-.07-2.22-.18-4.28-.25-5.43a7.26,7.26,0,0,0-.06-1s-3.86-5.82-3.23-8,.49-9.58.49-9.58-1.5-3.55-2.51-6.69c-.08-.24-.15-.48-.22-.71a35.76,35.76,0,0,0,2.36-3,38,38,0,0,0-2.82-22.8,1.43,1.43,0,0,1-.61-1.17.24.24,0,0,1,0-.12l1.93-23.61-1.17-13.74s-.83-9.39,1-13.43l3.65-35.57,5.18-20.69s1.66-.81,3,3.08,4.64,21.5,4.64,21.5l8,29.11s1.33,10.35,2.49,11.81,1.17,7.92,1.17,7.92,2.49,5.18,2.16,7.44,0,8.41.82,10.51,1.17,17,1.17,17a34.32,34.32,0,0,0,.33,14.72c2,7.44.83,16.82.83,16.82.21.32.44.64.68.94-.08.22-.17.44-.25.64-.52,1.35-.93,2.3-.93,2.3s-.12,7.4.5,9.58-3.24,8-3.24,8,0,.36-.06,1c-.07,1.15-.18,3.2-.25,5.43v6.47a3.69,3.69,0,0,0,.05.72c.38,4.48,11.71,2.79,11.71,2.79l.91.11h5.06l.34-.06.33,0,.32-.07.32-.06.39-.1.47-.14.29-.09.28-.1.27-.1.27-.11.26-.11L781,567l.25-.13.23-.12.24-.13.22-.14.23-.14.2-.14.22-.16a1.33,1.33,0,0,0,.19-.14,1.84,1.84,0,0,0,.22-.17l.17-.14.25-.22.11-.11.34-.33.1-.12.22-.23.11-.15a2,2,0,0,0,.19-.22l.11-.15.17-.23.1-.15.16-.23a.86.86,0,0,1,.1-.16c0-.08.09-.16.14-.24l.09-.15c0-.09.09-.17.13-.25a1.09,1.09,0,0,0,.08-.15c0-.09.09-.18.13-.27l.07-.14c0-.1.09-.2.14-.31v-.09c.11-.28.22-.56.31-.84v-.08a1.07,1.07,0,0,1,.11-.33v-.14a.38.38,0,0,1,.08-.28v-.11a2.44,2.44,0,0,1,.14-.53h0a3.45,3.45,0,0,1,.11-.54v-.13a3.85,3.85,0,0,1,.08-.49.39.39,0,0,0,0-.17v-1.3h0V555a1.22,1.22,0,0,1,0-.27v-.35a.24.24,0,0,1,0-.12v-.4h0c-.06-.73-.13-1.17-.13-1.17v-.91L786,535.56v-1c.93-.52,1.88-1.11,2.87-1.8,0,0-.17-9.22,2.49-12.93s-1.33-13.43-1.33-13.43l-1.66-34.77.66-16a15.82,15.82,0,0,1-2-7.76,28.06,28.06,0,0,0-2.66-10s-1.66-5.5.34-7.12-2.16-37-2.16-37,1-25.85-.9-41.2v-.25l.53-.24c-.16-1.23-.33-2.38-.52-3.45l-.56.17a28.88,28.88,0,0,0-1-4l-2.66-12.21s-.06-.64-.13-1.57c-.09-1.1-.19-2.59-.21-3.9a6.5,6.5,0,0,1,.18-1.64l-.14-.12a3.51,3.51,0,0,1,.14-.85l-.58-.49s-.08-.55-.14-1.39c-.13-1.86-.2-5.1.72-6.93,1.33-2.67,15-12.78,15-12.78L800,287.57s7.64-10.76,13.45-12.86,23.91-14.14,23.91-14.14,6.31-6.47,6.81-8l.21-.32h.12V252l17-25.47c6.8-5.5,7-17.22,7-17.22l1.77-26.78-.58-15.84.82-9S885.46,119.71,871.19,120.27Zm-97.38,69.3A21.39,21.39,0,0,0,771,200.19v1a21.37,21.37,0,0,0,2.27,9.58,7.82,7.82,0,0,0-1.65,2.93c-.84-1.06-3.3-4.3-3.44-6.45-.17-2.58-2.66-4.36-2.66-4.36s-.46-4.9.16-5.74l.09-.08s.07-.12.21-.32h0c.71-1.07,3.1-4.68,5.57-8.79a7.27,7.27,0,0,0,1.27.42l1.52.38Z" transform="translate(0 0)"/><path class="cls-3" d="M822.25,186.87c.15-.34.27-.7.39-1.06a21.69,21.69,0,0,0-1,2.45C821.85,187.79,822.06,187.33,822.25,186.87Z" transform="translate(0 0)"/><path class="cls-4" d="M778.25,210.65s-3.13,14.92-8.9,16.85,7,19,7,19l26.47-1.45.48-5.53s-5-11.07,3.37-24.54S778.25,210.65,778.25,210.65Z" transform="translate(0 0)"/><path class="cls-5" d="M736.74,562.92c-.36,4.45-11.31,2.77-11.31,2.77-18.16,2.52-15.16-15.28-15.16-15.28v-.91l.63-16.6.18-4.63s20-9.14,19.49-7.22c-.19.72.23,2.45.81,4.32,1,3.11,2.43,6.63,2.43,6.63s.12,7.34-.48,9.5,3.13,7.94,3.13,7.94,0,.36.06,1A115.46,115.46,0,0,1,736.74,562.92Z" transform="translate(0 0)"/><path class="cls-5" d="M771.75,567.73s-11,1.69-11.31-2.77a113.49,113.49,0,0,1,.19-12.51,8.91,8.91,0,0,1,0-1s3.73-5.78,3.13-7.94-.48-9.51-.48-9.51.39-.93.9-2.27c1.07-2.81,2.68-7.37,2.35-8.67-.48-1.93,19.49,7.21,19.49,7.21l.2,5.18.61,16v.91S789.92,570.26,771.75,567.73Z" transform="translate(0 0)"/><path class="cls-4" d="M846.82,111.92C840.46,132.37,821.16,138,821.16,138s-12.92,9.58-14.76,12.58-17.72,15.88-21.9,17.57-7.37,4.49-6.25,8.25c1,3.49-9.94,20.57-11.59,23.11h0l-.2.32L763,203.43l-11.71,5.93-9.54-3.05-1.21-11.46,5.06-9h0a24.75,24.75,0,0,0,7.17-7.83c3.29-5.46,5.54-9.22,5.54-9.22s3.61-8.58,9.3-13.64a84.53,84.53,0,0,1,12.67-9l23.51-14s5.29-3.93,9-5S853.16,91.47,846.82,111.92Z" transform="translate(0 0)"/><path class="cls-6" d="M751.3,202l15.64-3.13a1,1,0,0,0-.28.65h0l-.2.32L763,203.44l-11.71,5.93-9.54-3.05-1.21-11.46,5.06-9h0c-4.79,10-.12,17.1-.12,17.1Z" transform="translate(0 0)"/><path class="cls-6" d="M842.76,253.65a3,3,0,0,0-.11.32,4.35,4.35,0,0,1-.58,1l-6.31,3.08-9.63,1-5-12.11,3.33-13.27,1.84-2.48.51-.56c.19,2.4,1.16,14.92,1.1,18.68-.08,4.17,3,4.5,3,4.5Z" transform="translate(0 0)"/><path class="cls-7" d="M842.28,254.57a3,3,0,0,0-.11.32c-.48,1.52-6.57,7.94-6.57,7.94s-17.49,11.95-23.1,14-13,12.75-13,12.75l-7.38,15.23s-13.23,10-14.51,12.68c-.89,1.82-.82,5-.69,6.88a7.13,7.13,0,0,0,.12,1.38l-3.9,4.07L770,333.06l-4.38,4.56-7.13-1-22.22-3.53-4.26-2.4-23.65-13.32s0-.83-.06-2.1c0-.56,0-1.2-.06-1.91-.07-2.16-.17-4.85-.28-7.14-.24-4.73,3.37-12.83,3.37-12.83L718,277c-.64-3.12,3-11.39,3-11.39-.64-1.2,3.21-13.15,4.17-14.27s2.57-9.55,2.57-9.55c2-2.88,4.89-17.56,4.89-17.56s3.29-18.61,4-23.26,8.8-15.07,9.06-15.39c-5.77,10.58-.72,18.28-.72,18.28l5.78-1,15.65-3c-.72.48-.24,5.77-.24,5.77a6.67,6.67,0,0,1,2.56,4.33c.15,2.35,3,6,3.53,6.65l.08.09a7.84,7.84,0,0,1,3.77-5.38l3.61,4.82,1.21,5.77s-.33.81-2.41,2.41.88,5.77.88,5.77c1,1.69,1.29,7.94,1.29,7.94h0c2.65-2.32,6.81-2.32,6.81-2.32a20.61,20.61,0,0,0,4.09-5.86,2.43,2.43,0,0,1,2.91-1.8,2.49,2.49,0,0,1,.54.2,22.62,22.62,0,0,1,3.93-2.73c1.93-1,4.17,1,4.17,1l.24,7.39s.19.3.5.71c.63.88,1.76,2.23,2.47,2,1-.32,9.06.48,9.06.48s2.81,1.2,3.85-.32,7-5.53,7-5.53,1.15,14.89,1.15,19.05,3,4.5,3,4.5Z" transform="translate(0 0)"/><path class="cls-8" d="M842.46,254.57h-.21C842.63,253.57,842.46,254.57,842.46,254.57Z" transform="translate(0 0)"/><circle class="cls-9" cx="776.65" cy="244.82" r="1.44"/><circle class="cls-9" cx="766.14" cy="265.76" r="1.44"/><circle class="cls-9" cx="745.45" cy="310.59" r="1.44"/><circle class="cls-9" cx="755.23" cy="287.97" r="1.44"/><path class="cls-6" d="M731.46,525.37c-7.52,8.94-15.64,8.79-20.48,7.53l.18-4.63s20-9.14,19.49-7.22A10.62,10.62,0,0,0,731.46,525.37Z" transform="translate(0 0)"/><path class="cls-6" d="M786.27,535.49c-12.77,7.38-20.26-1.27-22-3.72,1.07-2.81,2.68-7.37,2.35-8.67-.48-1.93,19.49,7.21,19.49,7.21Z" transform="translate(0 0)"/><path class="cls-10" d="M791.4,519.93c-2.56,3.69-2.41,12.83-2.41,12.83-16.52,11.87-25.18-2.57-25.18-2.57s1.12-9.3-.8-16.68a34.72,34.72,0,0,1-.32-14.6s-.32-14.76-1.13-16.84-1.12-8.18-.8-10.43-2.08-7.37-2.08-7.37,0-6.42-1.13-7.86-2.4-11.72-2.4-11.72l-7.69-28.87s-3.21-17.48-4.49-21.33-2.89-3.05-2.89-3.05l-4.62,20.69-3.53,35.29c-1.77,4-1,13.32-1,13.32l1.12,13.63-1.86,23.42v.12a1.43,1.43,0,0,0,.58,1.16,38.53,38.53,0,0,1,2.69,22.62c-12.19,17.65-27,8.5-27,8.5a37.26,37.26,0,0,0-2.88-11.7c-2.73-6.74.48-34,.48-34l-2.41-17.65s-.16-10.59-.64-12-.32-11.87-.32-11.87l.32-11.07c-4.17-14.12-2.09-36.41-2.09-36.41s-.64-35.61.65-37.22c.93-1.16.34-6.44.74-10.25a7,7,0,0,1,.94-3.29l.16-.16c2.09-2.57,2.09-12.83,1.92-16.85-.08-2.12,1.37-5.56,2.75-8.32,1-1.94,1.91-3.54,2.25-4.12l.14-.23s9.14,2.25,33.36,13.8a45.41,45.41,0,0,0,13.78,4.27,30.34,30.34,0,0,0,7.19.11,25.12,25.12,0,0,0,10.34-3.36,18,18,0,0,0,4.47-3.59c-.33,1-.13,4.42,0,6.46.06.93.13,1.56.13,1.56l2.67,11.9a31.7,31.7,0,0,1,1,4.31c.19,1.06.35,2.21.5,3.43,1.87,15.22.87,40.87.87,40.87s4,35.13,2.09,36.73-.33,7.06-.33,7.06a28.58,28.58,0,0,1,2.57,9.94,16,16,0,0,0,1.93,7.7l-.65,15.88,1.68,34.45S794,516.24,791.4,519.93Z" transform="translate(0 0)"/><path class="cls-6" d="M772.59,461.86s12.15-7,14.8-3.85S772.59,461.86,772.59,461.86Z" transform="translate(0 0)"/><path class="cls-6" d="M779.93,465.71s-2,1,2.41,2.28S779.93,465.71,779.93,465.71Z" transform="translate(0 0)"/><path class="cls-6" d="M706.46,446.46c-.41.12,10.11,7.1,19.61,1.32C726,447.78,708.83,445.74,706.46,446.46Z" transform="translate(0 0)"/><path class="cls-6" d="M725.55,459.81s-2.88,5.66-8.78,6.5S725.55,459.81,725.55,459.81Z" transform="translate(0 0)"/><path class="cls-6" d="M764.17,472.09s13.84,22,11.19,27.19S764.17,472.09,764.17,472.09Z" transform="translate(0 0)"/><path class="cls-6" d="M740.83,338.66l-1.44,43.07s8.54-.36,10-14.55,2.53-25.75,2.53-25.75Z" transform="translate(0 0)"/><path class="cls-10" d="M740.35,337.7l-1.44,43.07s8.54-.36,10-14.56,2.55-25.74,2.55-25.74Z" transform="translate(0 0)"/><path class="cls-6" d="M723,339.63s-6.74,18.07-22.16,9.32a7,7,0,0,1,.94-3.29c4.22,1.77,14,4.36,18-7.36Z" transform="translate(0 0)"/><path class="cls-6" d="M722.55,337.7s-6.74,18.07-22.16,9.32a7.15,7.15,0,0,1,.94-3.29c4.22,1.78,14,4.36,18-7.35Z" transform="translate(0 0)"/><path class="cls-10" d="M722.55,338.66s-6.74,18.07-22.16,9.32a7.15,7.15,0,0,1,.94-3.29c4.22,1.78,14,4.36,18-7.35Z" transform="translate(0 0)"/><path class="cls-6" d="M781.55,354.9C764.61,363,758.4,344,758.4,344l4,.12c.7,12.15,14.09,8.88,18.68,7.39C781.24,352.57,781.4,353.68,781.55,354.9Z" transform="translate(0 0)"/><path class="cls-6" d="M782.51,353.46c-16.93,8.05-23.15-10.95-23.15-10.95l4,.12c.7,12.15,14.09,8.89,18.68,7.4C782.2,351.09,782.36,352.24,782.51,353.46Z" transform="translate(0 0)"/><path class="cls-10" d="M782,353.94C765.1,362,758.88,343,758.88,343l4,.12c.7,12.16,14.09,8.89,18.68,7.4C781.72,351.57,781.88,352.72,782,353.94Z" transform="translate(0 0)"/><path class="cls-11" d="M722.55,338.66s-6.74,18.07-22.16,9.32a7.15,7.15,0,0,1,.94-3.29c4.22,1.78,14,4.36,18-7.35Z" transform="translate(0 0)"/><path class="cls-11" d="M782,353.94C765.1,362,758.88,343,758.88,343l4,.12c.7,12.16,14.09,8.89,18.68,7.4C781.72,351.57,781.88,352.72,782,353.94Z" transform="translate(0 0)"/><path class="cls-6" d="M736.86,559.57a28.38,28.38,0,0,1-.12,3.33c-.36,4.45-11.31,2.77-11.31,2.77-10,1.39-13.6-3.41-14.79-8a18.42,18.42,0,0,1-.55-4.56,17.93,17.93,0,0,1,.18-2.74v-.91a6.7,6.7,0,0,1,6.22,1.27c4.45,3.61,10.35.84,10.35.84s4.33.36,6,1.8c.94.81,2.49-1.14,3.67-3,.07,1.2.18,3.37.25,5.69C736.84,557.25,736.86,558.45,736.86,559.57Z" transform="translate(0 0)"/><path class="cls-6" d="M719.3,559.31s-3,2.94-8.66-1.6a18.42,18.42,0,0,1-.55-4.56C713,555.35,718.34,559.31,719.3,559.31Z" transform="translate(0 0)"/><path class="cls-6" d="M736.86,559.57a2.26,2.26,0,0,1-3.17-.41l-.08-.11a21.14,21.14,0,0,0,3.2-3C736.84,557.25,736.86,558.45,736.86,559.57Z" transform="translate(0 0)"/><path class="cls-6" d="M760.33,561.63a30.76,30.76,0,0,0,.11,3.33c.36,4.46,11.31,2.77,11.31,2.77,10,1.4,13.6-3.4,14.79-8a19.31,19.31,0,0,0,.37-7.3v-.91a6.78,6.78,0,0,0-6.23,1.27c-4.45,3.61-10.34.84-10.34.84s-4.33.37-6,1.81c-.94.81-2.49-1.14-3.66-3-.07,1.2-.19,3.37-.26,5.69C760.34,559.3,760.32,560.5,760.33,561.63Z" transform="translate(0 0)"/><path class="cls-6" d="M777.89,561.35s3,2.94,8.65-1.6a18,18,0,0,0,.56-4.55C784.2,557.39,778.84,561.35,777.89,561.35Z" transform="translate(0 0)"/><path class="cls-6" d="M760.33,561.63a2.26,2.26,0,0,0,3.16-.4l.08-.12a21.14,21.14,0,0,1-3.2-3C760.34,559.3,760.32,560.5,760.33,561.63Z" transform="translate(0 0)"/><path class="cls-6" d="M747.13,254.57s-15.4,42.51-9.47,46.2S747.13,254.57,747.13,254.57Z" transform="translate(0 0)"/><path class="cls-6" d="M758.36,241.45s-2.9,14.12-1.45,15.4S758.36,241.45,758.36,241.45Z" transform="translate(0 0)"/><path class="cls-6" d="M789.46,274.34S770.53,292,771.81,293.43,789.46,274.34,789.46,274.34Z" transform="translate(0 0)"/><path class="cls-6" d="M803.93,235.51c-7.17,2.19-23.93,7.31-24.12,7.27l.93-3.82c2.65-2.32,6.81-2.32,6.81-2.32a20.61,20.61,0,0,0,4.09-5.86,2.43,2.43,0,0,1,2.91-1.8,2.49,2.49,0,0,1,.54.2,22.62,22.62,0,0,1,3.93-2.73c1.93-1,4.17,1,4.17,1l.24,7.38S803.62,235.1,803.93,235.51Z" transform="translate(0 0)"/><path class="cls-7" d="M803.93,234.57c-7.17,2.19-23.93,7.31-24.12,7.26l.93-3.81c2.65-2.32,6.81-2.32,6.81-2.32a20.61,20.61,0,0,0,4.09-5.86,2.43,2.43,0,0,1,2.91-1.8,2.49,2.49,0,0,1,.54.2,22.62,22.62,0,0,1,3.93-2.73c1.93-1,4.17,1,4.17,1l.24,7.39S803.62,234.14,803.93,234.57Z" transform="translate(0 0)"/><path class="cls-6" d="M779,230.57c1,1.69,1.28,7.94,1.28,7.94l-2.79,2.22-5.3-15.28-.24-7.94-.1-.45.08.09a7.76,7.76,0,0,1,3.77-5.37l3.61,4.81,1.21,5.77s-.33.81-2.41,2.41S779,230.57,779,230.57Z" transform="translate(0 0)"/><path class="cls-7" d="M779.46,230.06c1,1.69,1.29,7.94,1.29,7.94L778,240.25,772.66,225l-.24-7.94-.11-.45.08.09a7.84,7.84,0,0,1,3.77-5.38l3.61,4.82,1.21,5.77s-.33.81-2.41,2.41S779.46,230.06,779.46,230.06Z" transform="translate(0 0)"/><path class="cls-6" d="M814.82,203.92a21.48,21.48,0,1,1,0-.37Z" transform="translate(0 0)"/><path class="cls-4" d="M814.82,203a21.66,21.66,0,1,1-21.67-21.65h0a21.53,21.53,0,0,1,21.65,21.41Z" transform="translate(0 0)"/><path class="cls-6" d="M814.82,203a21.47,21.47,0,0,1-3.15,11.25c-.32-.57-.51-1.23-.83-1.81-.45-.81-1.49-1.49-2.26-1a2.3,2.3,0,0,0-.71,1c-.63,1.33-1.75,2.66-3.22,2.63a3.19,3.19,0,0,1-2.74-2.34,9.64,9.64,0,0,1-.16-3.82c.22-2.6.26-5.6-1.67-7.35a11,11,0,0,0-4.18-1.87c-1.47-.48-3-1.24-3.6-2.66-.4-1-.3-2.06-.66-3a5.27,5.27,0,0,0-3.89-2.86,10.17,10.17,0,0,1-6.81,2.33,25.39,25.39,0,0,1-6.7-1.06,21.66,21.66,0,0,1,40.58,10.53Z" transform="translate(0 0)"/><path class="cls-12" d="M791.64,193c.36,1,.26,2.08.66,3,.59,1.42,2.13,2.18,3.6,2.66a10.94,10.94,0,0,1,4.18,1.86c1.93,1.76,1.89,4.76,1.67,7.36a9.64,9.64,0,0,0,.16,3.82,3.21,3.21,0,0,0,2.74,2.34c1.47,0,2.59-1.3,3.22-2.63a2.3,2.3,0,0,1,.71-1c.77-.51,1.81.17,2.26,1a9.77,9.77,0,0,0,1.29,2.43,2.88,2.88,0,0,0,2.63.6,6.63,6.63,0,0,0,2.47-1.28,13.59,13.59,0,0,0,4.6-5.53,7.94,7.94,0,0,0-.29-7c-.75-1.26-1.94-2.27-2.41-3.66-.82-2.39.72-4.85,1.67-7.19a12.53,12.53,0,0,0,.85-6.79,8.71,8.71,0,0,0-3.57-5.73c-3.8-2.53-8.94-1.14-13.34-2.36a34.6,34.6,0,0,1-4.59-1.89,33.79,33.79,0,0,0-7-2.24c-2.39-.48-5.28-.54-6.79,1.37a15.14,15.14,0,0,0-1.1,1.92,6.91,6.91,0,0,1-4.32,3.18c-1.29.31-2.64.23-4,.42a4.41,4.41,0,0,0-3.33,1.91c-.66,1.2-.38,2.66-.22,4s.08,2.94-1,3.77c-.51.39-1.21.58-1.52,1.13a1.59,1.59,0,0,0,.47,1.89,4.5,4.5,0,0,0,1.91.84,29,29,0,0,0,7.67,1.31,10.12,10.12,0,0,0,7.14-2.63c-.17.17-1.27.1-1.47.09C788.53,190.22,790.91,191.08,791.64,193Z" transform="translate(0 0)"/><g class="cls-13"><path d="M818.46,210.77a6.88,6.88,0,0,1-2.47,1.29,2.9,2.9,0,0,1-2.62-.61,9.63,9.63,0,0,1-1.3-2.43c-.45-.81-1.49-1.49-2.26-1a2.45,2.45,0,0,0-.71,1c-.62,1.33-1.75,2.66-3.22,2.63a3.17,3.17,0,0,1-2.73-2.34,9.64,9.64,0,0,1-.17-3.82c.23-2.6.26-5.59-1.66-7.35a11,11,0,0,0-4.19-1.87c-1.46-.48-3-1.24-3.6-2.66-.4-1-.3-2.06-.66-3-.59-1.59-2.26-2.46-3.89-2.86a10.35,10.35,0,0,1-6.81,2.34,29.87,29.87,0,0,1-7.67-1.32,4.67,4.67,0,0,1-1.91-.83,2.11,2.11,0,0,1-.31-.36,2.82,2.82,0,0,0-1.12.87,1.59,1.59,0,0,0,.47,1.89,4.5,4.5,0,0,0,1.91.84,29,29,0,0,0,7.67,1.31,10.26,10.26,0,0,0,6.8-2.33c1.63.4,3.31,1.26,3.9,2.85.36,1,.26,2.08.66,3,.6,1.42,2.13,2.18,3.6,2.66a10.94,10.94,0,0,1,4.18,1.86c1.93,1.76,1.89,4.76,1.67,7.36a9.64,9.64,0,0,0,.16,3.82,3.21,3.21,0,0,0,2.74,2.34c1.47,0,2.59-1.3,3.22-2.63a2.3,2.3,0,0,1,.71-1c.77-.51,1.81.17,2.26,1a9.33,9.33,0,0,0,1.3,2.43,2.86,2.86,0,0,0,2.62.6,6.63,6.63,0,0,0,2.47-1.28,13.59,13.59,0,0,0,4.6-5.53,8.84,8.84,0,0,0,.43-1.32A14.2,14.2,0,0,1,818.46,210.77Z" transform="translate(0 0)"/><path d="M820.46,191.15c.21-.46.41-.92.6-1.37a9.12,9.12,0,0,0,.37-1.06A23.21,23.21,0,0,0,820.46,191.15Z" transform="translate(0 0)"/><path d="M773.7,184.86c1-.85,1.07-2.37.91-3.68a16.23,16.23,0,0,1-.19-2.31,3.4,3.4,0,0,0-.55.7c-.66,1.2-.38,2.66-.22,4A8,8,0,0,1,773.7,184.86Z" transform="translate(0 0)"/></g><path class="cls-6" d="M777.64,333.73c-1.86.13-4.47.27-7.61.38-2.18.07-4.62.12-7.23.12-2.28,0-4.69,0-7.19-.11A154,154,0,0,1,732,331.69c-10.39-2-20-5.45-26-11.29,1-1.94,1.91-3.55,2.25-4.12,0-.56,0-1.21-.06-1.91,10.55,5,43.44,18.89,68.65,11a7.13,7.13,0,0,0,.12,1.38l.57.48A30.35,30.35,0,0,0,777.64,333.73Z" transform="translate(0 0)"/><path class="cls-9" d="M777.64,332.77c-1.86.13-4.47.27-7.61.37-2.18.08-4.62.12-7.23.12-2.28,0-4.69,0-7.19-.11A154,154,0,0,1,732,330.73c-10.39-2-20-5.46-26-11.3,1-1.94,1.91-3.54,2.25-4.12,0-.56,0-1.2-.06-1.91,10.55,5,43.44,18.9,68.65,11.05a7.13,7.13,0,0,0,.12,1.38l.57.48A30,30,0,0,0,777.64,332.77Z" transform="translate(0 0)"/><path class="cls-14" d="M278.53,770.44A13.79,13.79,0,0,1,275.46,760L319.6,398.8l3.66-30a13.85,13.85,0,0,1,13.64-12.16l129.29-.86a13.83,13.83,0,0,0,13.74-13.91v-.3l-.05-1.37a13.84,13.84,0,0,1,13.36-14.3H629.57a13.83,13.83,0,0,1,13.83,13.8,14.52,14.52,0,0,1-.12,1.86,13.83,13.83,0,0,0,11.87,15.54,12.47,12.47,0,0,0,1.49.12l130.48,3.33A13.83,13.83,0,0,1,800.6,374.7a14.89,14.89,0,0,1-.2,2l-65.23,381-1.23,7.2a13.36,13.36,0,0,1-2,5.16Z" transform="translate(0 0)"/><g class="cls-15"><rect class="cls-16" x="498.12" y="337.23" width="262.83" height="80.36" transform="translate(-38.81 680.82) rotate(-55.36)"/></g><rect class="cls-17" x="500.36" y="339.56" width="259.31" height="76.4" transform="translate(-38.89 681.37) rotate(-55.36)"/><rect class="cls-18" x="656.6" y="270.05" width="53.94" height="53.94" transform="translate(49.52 688.77) rotate(-55.2)"/><rect class="cls-19" x="621.98" y="323.42" width="54.01" height="54.01" transform="translate(-8.21 685.19) rotate(-55.36)"/><rect class="cls-20" x="584.91" y="377.06" width="54.01" height="54.01" transform="translate(-68.35 677.84) rotate(-55.36)"/><g class="cls-15"><rect class="cls-21" x="452.35" y="330.33" width="261.85" height="80.36" transform="translate(64.03 826.45) rotate(-73.71)"/></g><rect class="cls-17" x="454.75" y="332.51" width="258.33" height="76.4" transform="translate(64.3 827.2) rotate(-73.71)"/><rect class="cls-22" x="584.45" y="249.66" width="54.01" height="54.01" transform="translate(174.38 785.97) rotate(-73.71)"/><rect class="cls-23" x="566.15" y="312.25" width="54.01" height="54.01" transform="translate(101.15 813.44) rotate(-73.71)"/><rect class="cls-24" x="547.87" y="374.82" width="54.01" height="54.01" transform="translate(27.92 840.91) rotate(-73.71)"/><g class="cls-15"><rect class="cls-25" x="427.75" y="331.49" width="261.85" height="80.36" transform="translate(143.4 898.74) rotate(-85.4)"/></g><rect class="cls-17" x="430.09" y="333.53" width="258.33" height="76.4" transform="translate(143.86 899.37) rotate(-85.4)"/><rect class="cls-26" x="540.12" y="247.06" width="54.01" height="54.01" transform="translate(248.45 817.39) rotate(-85.4)"/><rect class="cls-27" x="534.88" y="312.04" width="54.01" height="54.01" transform="translate(178.87 871.94) rotate(-85.4)"/><rect class="cls-28" x="529.66" y="377.05" width="54.01" height="54.01" transform="translate(109.27 926.52) rotate(-85.4)"/><g class="cls-15"><rect class="cls-29" x="500.48" y="246.67" width="80.36" height="261.85" transform="translate(-16.63 25.01) rotate(-2.61)"/></g><rect class="cls-30" x="503.11" y="248.4" width="76.4" height="258.33" transform="translate(-16.63 25.04) rotate(-2.61)"/><rect class="cls-31" x="509.85" y="252.66" width="54.01" height="54.01" transform="translate(-12.18 24.74) rotate(-2.61)"/><rect class="cls-32" x="515.05" y="315.61" width="54.08" height="54.08" transform="translate(-16.43 27.5) rotate(-2.86)"/><rect class="cls-33" x="515.79" y="382.94" width="54.01" height="54.01" transform="translate(-18.1 25.14) rotate(-2.61)"/><path class="cls-34" d="M529.68,590.71,461.8,617l-99.21,38.35c-3.75-7-9.27-16.46-16.1-27.75-23.5-38.94-62.38-99.51-97-152.74-39-60-72.57-110.63-72.57-110.63l24.3-7,198.5-57.63Z" transform="translate(0 0)"/><path class="cls-35" d="M529.68,590.71,461.8,617a510,510,0,0,1-115.34,10.6c-23.5-38.94-62.38-99.51-97-152.74L201.23,357.16l198.49-57.59Z" transform="translate(0 0)"/><path class="cls-31" d="M580.18,574.37s-105.45,62.38-262.89,48.27l-125.51-306,60.15-10.34,207.94-35.71,118,297.83Z" transform="translate(0 0)"/><path class="cls-35" d="M577.83,568.46c-24.83,1.22-53.56,1.1-82.46-2.35-31.28-3.68-62.74-11.26-89.71-25.16-22.55-11.61-41.83-24.24-58.64-39.39-43.73-39.33-70.79-95.59-95.09-195.22l207.94-35.71Z" transform="translate(0 0)"/><path class="cls-17" d="M655.19,551.35s-77.73,15.22-156.85,5.85c-31.28-3.68-62.74-11.26-89.71-25.16-22.55-11.61-41.82-24.24-58.64-39.39-54.12-48.69-82.7-123.31-112.17-274,0,0,129.22,31.19,257-37.13C494.78,181.57,537.85,450.35,655.19,551.35Z" transform="translate(0 0)"/><path class="cls-35" d="M498.34,557.2c-31.28-3.68-62.74-11.26-89.71-25.16-22.55-11.61-41.82-24.24-58.64-39.39,46.08-3.74,52.7-28.93,52.7-28.93C436.85,517.93,498.34,557.2,498.34,557.2Z" transform="translate(0 0)"/><path class="cls-33" d="M304.66,274S409.74,268,439.08,245.38l4.45,14.3s-69.43,30.63-138.87,31Z" transform="translate(0 0)"/><path class="cls-33" d="M304.66,344.57S406.4,339,483.27,301.87l2.6,5.94s-61,35.61-181.21,44.93Z" transform="translate(0 0)"/><path class="cls-33" d="M312.85,372.08s101.74-5.57,178.6-42.7l2.6,5.94s-61,35.6-181.2,44.93Z" transform="translate(0 0)"/><path class="cls-33" d="M321,399.63s101.74-5.57,178.61-42.7l2.59,5.94s-61,35.61-181.2,44.93Z" transform="translate(0 0)"/><path class="cls-33" d="M329.22,427.18s101.74-5.57,178.6-42.7l2.6,5.94s-61,35.61-181.2,44.93Z" transform="translate(0 0)"/><path class="cls-33" d="M337.4,454.74S439.14,449.17,516,412L518.6,418s-61,35.6-181.2,44.93Z" transform="translate(0 0)"/><ellipse class="cls-1" cx="1023.65" cy="834.08" rx="29.92" ry="5.06"/><ellipse class="cls-1" cx="813.75" cy="815.19" rx="102" ry="9.24"/><ellipse class="cls-1" cx="1056.06" cy="720.01" rx="16.87" ry="2.85"/><ellipse class="cls-1" cx="911.96" cy="738.87" rx="20.37" ry="3.44"/><ellipse class="cls-1" cx="54.65" cy="819" rx="29.92" ry="5.06"/><rect class="cls-36" x="875.99" y="-24.34" width="170.67" height="305.42" transform="matrix(0.31, -0.95, 0.95, 0.31, 542.02, 1002.9)"/><rect class="cls-37" x="877.16" y="-22.23" width="168.32" height="301.2" transform="matrix(0.31, -0.95, 0.95, 0.31, 542.01, 1002.9)"/><g class="cls-38"><circle class="cls-31" cx="874.94" cy="90.37" r="31.36"/></g><g class="cls-38"><rect class="cls-31" x="1011.97" y="33.45" width="8.59" height="136.63" transform="matrix(0.31, -0.95, 0.95, 0.31, 605.28, 1036.77)"/></g><g class="cls-38"><rect class="cls-31" x="973.33" y="77.43" width="8.59" height="69.6" transform="matrix(0.31, -0.95, 0.95, 0.31, 568.63, 1007.25)"/></g><g class="cls-38"><rect class="cls-31" x="986.98" y="83.43" width="8.59" height="112.57" transform="matrix(0.31, -0.95, 0.95, 0.31, 551.92, 1039.22)"/></g><g class="cls-38"><rect class="cls-31" x="991.65" y="95.95" width="8.59" height="136.63" transform="matrix(0.31, -0.95, 0.95, 0.31, 531.8, 1060.62)"/></g><g class="cls-15"><rect class="cls-31" x="1023.61" y="194.53" width="16.61" height="37.81" transform="matrix(0.31, -0.95, 0.95, 0.31, 509.89, 1128.8)"/></g><path class="cls-39" d="M935,483a8.47,8.47,0,0,0-.1-1,5.09,5.09,0,0,0-.17-1c-.13-.68-.27-1.35-.43-2-.08-.31-.16-.63-.25-.93a25.32,25.32,0,0,0-5-9.67c-.13-.16-.27-.31-.4-.46s-.54-.58-.81-.85-.52-.51-.78-.74l-.74-.64c-.48-.39-.93-.72-1.32-1a8.2,8.2,0,0,0-.81-.52,4.48,4.48,0,0,0-1.88-.61l-4.15-.41h0l-5.67-.56-20.27-7.87-.8.28a46.3,46.3,0,0,1-1.5-5,4.63,4.63,0,0,0,1.6-1.17,3.61,3.61,0,0,0,1.1-1.41c.51-1.18-.47-3.69-.27-5.13.32-2.31,1.52-4.54,2.5-6.63,2.08-4.49,3.6-9.36,3.35-14.29s-2.5-9.93-6.66-12.68c-2.15-1.43-4.68-2.19-6.92-3.49-1.74-1-3.27-2.34-4.93-3.48a28.32,28.32,0,0,0-27.92-2c-4.21,2.07-7.8,5.17-11.77,7.66s-8.65,4.4-13.3,3.66a3.77,3.77,0,0,0-.14.58l-.39-.05c-.8,2.18,1.16,4.34,3,5.83,3.43,2.83,7.32,5.65,11.79,5.75,1.73,0,3.56-.33,5.13.38a4.82,4.82,0,0,1,1,.6,22.29,22.29,0,0,0,7,22.21l-10.35-3.72s-.43.22-1.1.64l-14.36-9.56s-28.79-10.44-36.79,5.82,34.67,7.87,34.67,7.87l9.13,5a8.32,8.32,0,0,0,1,5.48l24.89,15.38c-5,1.55-13.29,4-14.76,4-2.13,0-8,2.1-11.73,10.49s-17.07,49.32-28.8,56.14-42.66,52.47-42.66,52.47l.14.36c-.55.15-1.09.3-1.62.48a32.69,32.69,0,0,0-16.07,12.12,5.14,5.14,0,0,0,3.6,8.11c12.21,1.55,18.88-4.08,22.09-8.33.21-.27.4-.54.58-.81a4.25,4.25,0,0,0,3,.14l14.93-12.07s-11.68,11.5-4.83,22l-.52.73a166.69,166.69,0,0,0-25,54.42s-6.4,4.72-6.93,23.61-6.94,49.32-6.94,49.32-4.26,36.21-1.6,47.22c0,0,.31.44.88,1.11-.2.24-.42.5-.66.76-2.33,2.52-6.53,6-11.42,5-7.46-1.58-7.46,11.54,3.2,12.59,6.87.67,20.37,3.74,29.12,5.84a6.12,6.12,0,0,0,7.44-4.44,6,6,0,0,0,.16-2.1c-.52-4.7-1.47-10.39-3.2-14.44-.11-.25-.22-.5-.33-.73.31-.3.63-.6.94-.92,0,0,0-23.09,3.74-29.38,0,0,10.13-47.75,9.59-59.82-.41-9.44,26.29-46.21,37.91-61.74l-.1-.59c3-4,4.86-6.4,4.86-6.4l9,57.2s4.27,12.59,9.6,19.41c0,0,22.93,43.55,25.6,57.19,2,10.35,6.18,16.46,8.08,18.82l-.69.66c-2.43,2.23-6,4.46-10.06,3.61-7.46-1.58-7.46,11.54,3.2,12.59,6.87.68,20.37,3.75,29.11,5.85a6.13,6.13,0,0,0,7.45-4.46,5.89,5.89,0,0,0,.16-2.09c-.61-5.46-1.8-12.25-4.1-16.26-.19-.34-.39-.68-.61-1A5.64,5.64,0,0,0,905,788.4s-13.87-33.06-13.87-42c0,0-5.86-34.1-25.59-46.69,0,0,1.86-42.66,7.48-66.4.14-.58.28-1.16.42-1.72A158.52,158.52,0,0,0,889,628.35l.53-15.74,2.67,12.59,29.86-18.36s-.26-3.31-.76-8.38c-.26-2.54-.57-5.52-.94-8.75-.3-2.58-.64-5.32-1-8.12-.1-.7-.19-1.41-.29-2.11-.39-2.83-.82-5.69-1.28-8.49q-.27-1.57-.54-3.12c-.25-1.37-.5-2.71-.76-4-.13-.65-.27-1.3-.4-1.93s-.28-1.26-.42-1.87-.28-1.2-.42-1.79c-.08-.29-.15-.58-.22-.86-.15-.57-.3-1.13-.45-1.67a29.64,29.64,0,0,1-1.08-6.88V546.1a19.84,19.84,0,0,1,.27-2.76c.06-.45.14-.91.23-1.36a30.28,30.28,0,0,1,1.51-5.36c.33-.87.71-1.73,1.12-2.58,1-2,2-4.13,3.06-6.4.54-1.13,1.08-2.29,1.62-3.47s1.09-2.38,1.64-3.6c5.19-11.57,10.31-24.46,11.68-32.93.14-.89.25-1.73.3-2.52A15.58,15.58,0,0,0,935,483Z" transform="translate(0 0)"/><path class="cls-40" d="M845.9,451.57l-17.59-11.89s-27.93-10.35-35.69,5.69,33.62,7.76,33.62,7.76L843.83,463Z" transform="translate(0 0)"/><rect class="cls-17" x="726.59" y="419.32" width="168.24" height="261.91" transform="translate(-90.57 934.66) rotate(-57.26)"/><rect class="cls-14" x="681.4" y="517.67" width="47.6" height="11.2" transform="translate(-114.64 837.88) rotate(-57.57)"/><rect class="cls-14" x="698.02" y="501.99" width="104.54" height="10.27" transform="translate(-80.11 868.45) rotate(-57.57)"/><rect class="cls-14" x="716.54" y="513.75" width="104.54" height="10.27" transform="translate(-81.44 889.53) rotate(-57.57)"/><rect class="cls-14" x="735.05" y="525.52" width="104.54" height="10.27" transform="translate(-82.79 910.62) rotate(-57.57)"/><rect class="cls-14" x="754.45" y="542.81" width="104.39" height="10.26" transform="translate(-90.47 930.18) rotate(-57.26)"/><rect class="cls-30" x="772.08" y="549.04" width="104.54" height="10.27" transform="translate(-85.48 952.78) rotate(-57.57)"/><rect class="cls-30" x="790.6" y="560.8" width="104.54" height="10.27" transform="translate(-86.81 973.86) rotate(-57.57)"/><rect class="cls-14" x="893.39" y="539.47" width="27.07" height="27.07" transform="translate(-46.19 1021.93) rotate(-57.57)"/><path class="cls-41" d="M897.93,814.21c-8.49-2.07-21.58-5.09-28.24-5.76-10.35-1-10.35-14-3.1-12.42,3.92.85,7.4-1.36,9.75-3.55a24.37,24.37,0,0,0,2-2.19,6,6,0,0,1,3.35-2c3.88-.84,12-2.12,16.91.55a7.24,7.24,0,0,1,2.68,2.94c2.23,4,3.39,10.65,4,16a6,6,0,0,1-7.35,6.48Z" transform="translate(0 0)"/><path class="cls-41" d="M767.06,819.38c-8.48-2.07-21.57-5.09-28.23-5.76-10.35-1-10.35-14-3.11-12.41,4.74,1,8.82-2.41,11.07-4.89.28-.3.53-.59.74-.86a6,6,0,0,1,3.34-2c3.88-.85,12-2.13,16.92.55,1.46.78,2.62,2.5,3.55,4.73,1.67,4,2.59,9.6,3.1,14.23a6,6,0,0,1-7.38,6.41Z" transform="translate(0 0)"/><path class="cls-35" d="M771.34,798.7c-12.35,12.73-22.94-.24-24.55-2.38.28-.3.53-.59.74-.86a6,6,0,0,1,3.34-2c3.88-.85,12-2.13,16.92.55C769.25,794.75,770.46,796.47,771.34,798.7Z" transform="translate(0 0)"/><path class="cls-35" d="M901.33,791.73C896,795.38,878,794.48,878,794.48a16.54,16.54,0,0,1-1.63-2,24.37,24.37,0,0,0,2-2.19,6,6,0,0,1,3.35-2c3.88-.84,12-2.12,16.91.55A7.29,7.29,0,0,1,901.33,791.73Z" transform="translate(0 0)"/><path class="cls-42" d="M902.28,789.31C898.65,794,878,792.93,878,792.93s-6.21-6.21-8.8-19.65-24.83-56.38-24.83-56.38c-5.17-6.73-9.31-19.14-9.31-19.14l-8.79-56.38s-42.41,55.86-41.89,67.76-9.32,59-9.32,59c-3.62,6.21-3.62,29-3.62,29-13.44,14-24.82-2.59-24.82-2.59C744,783.69,748.14,748,748.14,748s6.21-30,6.72-48.62,6.73-23.27,6.73-23.27a165.91,165.91,0,0,1,24.29-53.66c3.12-4.47,5.19-6.86,5.19-6.86l83.79,9.83a52.93,52.93,0,0,0-3.6,11.1C865.81,659.92,864,702,864,702c19.14,12.41,24.83,46,24.83,46C888.83,756.72,902.28,789.31,902.28,789.31Z" transform="translate(0 0)"/><g class="cls-13"><path d="M821.63,648.27l-1.08-6.89s-42.41,55.86-41.89,67.76-9.31,59-9.31,59c-3.63,6.21-3.63,29-3.63,29a17.76,17.76,0,0,1-8.09,5.19c4.07,1.07,9,.28,14.3-5.19,0,0,0-22.76,3.62-29,0,0,9.83-47.07,9.31-59C784.46,699.83,810.35,663.57,821.63,648.27Z" transform="translate(0 0)"/><path d="M889.34,747.93s-5.69-33.62-24.82-46c0,0,1.81-42,7.25-65.45a52.77,52.77,0,0,1,3.61-11.1l-83.79-9.81s-.2.22-.56.66l78.14,9.17a52.93,52.93,0,0,0-3.6,11.1c-5.45,23.4-7.26,65.45-7.26,65.45,19.14,12.41,24.83,46,24.83,46,0,8.79,13.45,41.38,13.45,41.38-2.14,2.74-10.2,3.51-16.47,3.68,5,.13,19.67.18,22.67-3.68C902.79,789.31,889.34,756.72,889.34,747.93Z" transform="translate(0 0)"/></g><path class="cls-40" d="M775.55,608.28a18.92,18.92,0,0,1-2.45,4.28c-3.11,4.19-9.58,9.73-21.42,8.21a5.09,5.09,0,0,1-4.4-5.7,4.94,4.94,0,0,1,.9-2.3,31.92,31.92,0,0,1,15.59-12,28.11,28.11,0,0,1,6.61-1.34Z" transform="translate(0 0)"/><path class="cls-43" d="M884.79,463.62l-41.48-15.17s-11.9,6.21-7.24,15l40.39,25.35Z" transform="translate(0 0)"/><path class="cls-35" d="M885,463.79l-41.49-15.17s-11.9,6.2-7.24,15L876.56,489Z" transform="translate(0 0)"/><path class="cls-40" d="M886.24,438.62s-.52,24.31,10.35,32.59S865,484.14,865,484.14s6.73-24.83,0-37.76S886.24,438.62,886.24,438.62Z" transform="translate(0 0)"/><path class="cls-35" d="M874.86,625.35a52.93,52.93,0,0,0-3.6,11.1c-50,7.64-84.85-13.17-84.85-13.17-.19-.3-.37-.6-.53-.9,3.12-4.47,5.19-6.86,5.19-6.86Z" transform="translate(0 0)"/><path class="cls-35" d="M775.55,608.28a18.92,18.92,0,0,1-2.45,4.28c-4.79-.8-8.62-10-9.33-11.74a28.11,28.11,0,0,1,6.61-1.34Z" transform="translate(0 0)"/><path class="cls-43" d="M890.38,460.35l-18.62,6.72L864,477.42s-16,5.17-18.1,5.17-7.76,2.07-11.38,10.34S818,541.57,806.59,548.28,765.21,600,765.21,600s5.17,14,11.38,11.9L791.07,600s-11.38,11.38-4.66,21.73c0,0,42.42,25.34,100.87,9.82l.51-15.51,2.59,12.41,29-18.1S916.79,577,912.12,560a30.77,30.77,0,0,1,2-21.41c7.51-15.65,19.1-41.79,17.69-51.32-1.67-11.23-8-16.11-10.44-17.58a4.23,4.23,0,0,0-1.82-.61l-9.47-.94Z" transform="translate(0 0)"/><path class="cls-6" d="M858.57,512.33s-10.35,48.1-21.73,55.86S795,600.78,793.91,604.92" transform="translate(0 0)"/><path class="cls-43" d="M853.91,510.78s-10.34,48.1-21.72,55.86-41.9,32.59-42.93,36.72" transform="translate(0 0)"/><path class="cls-35" d="M863.74,477.16s35.69-11.9,46-8.8" transform="translate(0 0)"/><g class="cls-13"><path d="M914.07,538.57c7.51-15.65,19.1-41.79,17.69-51.32-1.67-11.23-8-16.11-10.44-17.58a4.23,4.23,0,0,0-1.82-.61l-4-.4a4,4,0,0,1,1.2.49c2.42,1.48,8.77,6.35,10.43,17.59,1.41,9.52-10.18,35.67-17.68,51.32a30.74,30.74,0,0,0-2,21.4c4.68,17,7.27,50.38,7.27,50.38l-24.94,15.59.63,3,29-18.1s-2.59-33.39-7.26-50.38A30.73,30.73,0,0,1,914.07,538.57Z" transform="translate(0 0)"/><polygon points="905.38 467.59 909.86 468.04 890.38 460.35 888.63 460.98 905.38 467.59"/></g><path class="cls-6" d="M853.91,561s16-8.79,21.21-6.72,24.31-.52,24.31-.52" transform="translate(0 0)"/><path class="cls-6" d="M884.46,445.09c-.59-5.19,1.81-4.4,1.81-4.4s-27.93-5.17-21.21,7.76a29.69,29.69,0,0,1,2.84,11.37h.27C875.93,459.83,880.46,451.15,884.46,445.09Z" transform="translate(0 0)"/><circle class="cls-40" cx="868.14" cy="435.52" r="22.24"/><path class="cls-35" d="M892.46,442.1c2-4.43,3.49-9.23,3.25-14.09s-2.42-9.79-6.46-12.51c-2.08-1.4-4.54-2.15-6.71-3.43-1.69-1-3.18-2.31-4.79-3.43a27.09,27.09,0,0,0-27.08-2c-4.08,2-7.56,5.11-11.41,7.56s-8.39,4.33-12.9,3.61c-.78,2.15,1.13,4.27,2.88,5.75,3.33,2.79,7.1,5.57,11.44,5.66,1.68,0,3.45-.32,5,.38a7.19,7.19,0,0,1,2.54,2.36,46.58,46.58,0,0,1,5.28,9,7.38,7.38,0,0,0,2.36,3.48c2,1.28,4.59.21,7,.12,3.68-.15,7,2.17,9.72,4.65s5.32,5.32,8.76,6.63c2.57,1,7.71.94,9-2.13.49-1.16-.46-3.64-.26-5.06A24.28,24.28,0,0,1,892.46,442.1Z" transform="translate(0 0)"/><path class="cls-43" d="M892.92,441.57c2-4.43,3.5-9.23,3.25-14.08s-2.41-9.8-6.45-12.51c-2.09-1.41-4.55-2.16-6.71-3.44-1.69-1-3.18-2.3-4.79-3.43a27.09,27.09,0,0,0-27.08-2c-4.08,2-7.56,5.1-11.41,7.55s-8.39,4.34-12.9,3.61c-.78,2.16,1.12,4.28,2.88,5.75,3.33,2.79,7.1,5.57,11.44,5.67,1.68,0,3.45-.33,5,.38a7,7,0,0,1,2.54,2.36,45.65,45.65,0,0,1,5.27,8.94,7.47,7.47,0,0,0,2.37,3.48c2,1.28,4.59.21,7,.12,3.68-.14,7,2.18,9.71,4.66s5.32,5.31,8.77,6.62c2.57,1,7.71.94,9-2.13.5-1.16-.45-3.64-.25-5.06A24.64,24.64,0,0,1,892.92,441.57Z" transform="translate(0 0)"/><path class="cls-35" d="M731.92,770a10.3,10.3,0,0,1-6.62,2.34l-446.77-1.9A13.79,13.79,0,0,1,275.46,760L319.6,398.8l27.68-.3a10.47,10.47,0,0,1,10.2,7.72l5.17,19.08A10.46,10.46,0,0,0,373,433l110.47-2.65a10.46,10.46,0,0,0,10.21-10.46V407.27A10.46,10.46,0,0,1,504,396.81l153.08-1.65a10.46,10.46,0,0,1,10.37,8.49l67.7,354,.44,2.28A10.4,10.4,0,0,1,731.92,770Z" transform="translate(0 0)"/><path class="cls-44" d="M652.09,400.17,499,401.82a10.46,10.46,0,0,0-10.35,10.45v12.65a10.46,10.46,0,0,1-10.2,10.45L368,438a10.45,10.45,0,0,1-10.35-7.72l-5.19-19.07a10.44,10.44,0,0,0-10.21-7.72L194.7,405.1a10.46,10.46,0,0,0-10.35,10.55,11.37,11.37,0,0,0,.15,1.65l59.36,349.36a10.46,10.46,0,0,0,10.27,8.71l466.14,2A10.46,10.46,0,0,0,730.77,767a10.34,10.34,0,0,0-.19-2L662.46,408.66A10.44,10.44,0,0,0,652.09,400.17Z" transform="translate(0 0)"/><path class="cls-4" d="M867.68,160.93l-.8,8.9.58,15.74-1.69,26.55s-.24,11.63-6.81,17.08L842.19,255l-.1.05-6.31,3.08-9.63,1-5-12.11,3.31-13.3,1.84-2.48.51-.56c2-2.2,9.72-10.19,15.85-12.68,0,0,4.09-3,3.37-7.7s5.52-29.68,5.52-29.68,4-16.52,3.13-18.13-.16-38.18,13.64-38.74S867.68,160.93,867.68,160.93Z" transform="translate(0 0)"/><ellipse class="cls-1" cx="151.43" cy="700.88" rx="16.21" ry="2.23"/><ellipse class="cls-1" cx="89.34" cy="707.17" rx="16.21" ry="2.23"/><ellipse class="cls-1" cx="16.21" cy="698.65" rx="16.21" ry="2.23"/><ellipse class="cls-1" cx="114.19" cy="725.1" rx="11.52" ry="1.58"/><ellipse class="cls-1" cx="49.75" cy="723.52" rx="11.52" ry="1.58"/><path class="cls-45" d="M30.66,679.44c0,1-.11,1.81-.25,1.81s-.25-.81-.25-1.81.14-.53.28-.53S30.66,678.44,30.66,679.44Z" transform="translate(0 0)"/><path class="cls-45" d="M32.05,680.64c-.88.48-1.65.76-1.71.64s.59-.6,1.47-1.08.53-.13.59,0S32.92,680.16,32.05,680.64Z" transform="translate(0 0)"/><circle class="cls-1" cx="33.94" cy="126.71" r="21.63"/><circle class="cls-1" cx="1074.03" cy="299.56" r="21.63"/><circle class="cls-1" cx="685.21" cy="58.02" r="21.63"/><circle class="cls-1" cx="77.2" cy="246.04" r="36.25"/><text class="cls-46" transform="translate(424.16 594.62)"><tspan class="cls-47">A</tspan><tspan x="13.85" y="0">ti</tspan></text><text class="cls-48" transform="translate(353.3 641.38) scale(1.06 1)">Ati</text></svg>